<svg width="202" height="73" viewBox="0 0 202 73" fill="none" xmlns="http://www.w3.org/2000/svg">
<path d="M187.831 10.1842C191.011 10.0756 194.257 11.0939 196.635 13.4266C198.756 15.5955 200.214 18.7201 200.319 21.916C200.326 22.4503 200.326 22.9842 200.324 23.5185C200.325 23.7023 200.325 23.8861 200.326 24.0754C200.326 24.3395 200.326 24.3395 200.325 24.609C200.325 24.769 200.325 24.929 200.325 25.0938C200.304 25.5084 200.304 25.5084 200.142 26.036C193.56 26.036 186.979 26.036 180.198 26.036C181.082 30.1343 181.082 30.1343 183.734 32.9509C186.014 34.3226 188.148 34.5786 190.669 33.9493C191.545 33.6746 192.458 33.3183 193.112 32.6046C193.331 32.3683 193.331 32.3683 193.656 32.3683C193.699 32.2708 193.742 32.1733 193.787 32.0728C194 31.6233 194.235 31.195 194.477 30.7632C194.811 30.1678 194.811 30.1678 195.115 29.5539C196.667 29.5539 198.219 29.5539 199.817 29.5539C198.889 32.912 197.199 35.2873 194.373 37.0219C191.278 38.6833 187.323 38.9722 184.019 37.889C180.448 36.3829 178.173 33.8516 176.63 30.0816C175.215 26.4872 175.466 21.7474 176.752 18.1537C177.977 14.9291 180.056 12.6873 182.95 11.2329C184.5 10.5345 186.169 10.2893 187.831 10.1842ZM183.116 16.01C182.993 16.1025 182.869 16.195 182.742 16.2904C182.651 16.372 182.561 16.4536 182.468 16.5377C182.468 16.6538 182.468 16.7699 182.468 16.8895C182.361 16.8895 182.254 16.8895 182.143 16.8895C180.935 18.5003 180.464 20.3213 180.198 22.3422C185.388 22.3422 190.578 22.3422 195.926 22.3422C195.621 19.8622 195.236 17.8623 193.494 16.1859C190.378 13.6422 186.286 13.4841 183.116 16.01Z" fill="#40322E"/>
<path d="M99.4605 10.1842C102.956 10.0648 106.147 11.316 108.69 13.8993C111.083 16.5486 111.968 19.982 111.953 23.6175C111.954 23.773 111.955 23.9286 111.955 24.0888C111.955 24.314 111.955 24.314 111.955 24.5437C111.955 24.6784 111.954 24.8132 111.954 24.952C111.933 25.3325 111.933 25.3325 111.771 26.036C105.189 26.036 98.6079 26.036 91.8268 26.036C92.4079 28.9774 92.9586 31.1095 95.232 32.8959C97.5101 34.342 99.7365 34.5926 102.289 33.9616C103.147 33.6784 103.874 33.2233 104.637 32.72C104.753 32.6659 104.87 32.6117 104.99 32.5558C105.37 32.3144 105.437 32.1 105.609 31.6647C105.773 31.3628 105.938 31.0624 106.106 30.7632C106.441 30.1678 106.441 30.1678 106.744 29.5539C108.296 29.5539 109.848 29.5539 111.447 29.5539C110.586 32.6671 108.918 35.3094 106.23 36.8927C103.01 38.5614 99.1053 39.0122 95.6538 37.889C92.3479 36.5082 89.8929 34.1186 88.396 30.6168C88.0096 29.599 87.8039 28.5205 87.611 27.4432C87.5799 27.2836 87.5487 27.1239 87.5166 26.9595C86.9993 22.5957 87.7595 18.3469 90.1376 14.7416C92.1758 12.0196 95.2412 10.6365 98.3837 10.2495C98.7426 10.223 99.1014 10.2069 99.4605 10.1842ZM94.0969 16.5377C94.0969 16.6538 94.0969 16.7699 94.0969 16.8895C93.9899 16.8895 93.8829 16.8895 93.7726 16.8895C92.5637 18.5303 92.0636 20.2874 91.8268 22.3422C97.0172 22.3422 102.208 22.3422 107.555 22.3422C107.222 19.6288 106.745 17.6219 104.789 15.8905C101.528 13.3553 97.0802 13.7108 94.0969 16.5377Z" fill="#40322E"/>
<path d="M167.451 12.6027C169.789 14.9075 170.635 17.9665 170.793 21.2869C170.821 22.5737 170.812 23.8612 170.809 25.1483C170.808 25.5199 170.808 25.8916 170.808 26.2632C170.807 27.2348 170.806 28.2064 170.804 29.1779C170.802 30.172 170.802 31.166 170.801 32.1601C170.799 34.1057 170.796 36.0513 170.793 37.9969C169.348 37.9969 167.903 37.9969 166.415 37.9969C166.413 37.4823 166.412 36.9677 166.41 36.4375C166.405 34.7293 166.396 33.0212 166.385 31.3131C166.379 30.2784 166.373 29.2437 166.371 28.209C166.368 27.2087 166.363 26.2085 166.355 25.2083C166.353 24.8284 166.352 24.4485 166.351 24.0686C166.349 21.2459 166.31 18.5797 164.469 16.3618C163.156 14.9672 161.38 14.4496 159.584 14.383C157.98 14.4043 156.127 14.8361 154.964 16.1254C154.74 16.3618 154.74 16.3618 154.416 16.3618C154.371 16.4647 154.325 16.5677 154.279 16.6737C154.104 17.0391 153.91 17.3638 153.696 17.703C152.742 19.343 152.611 21.2261 152.599 23.1203C152.597 23.3625 152.597 23.3625 152.594 23.6096C152.589 24.1396 152.585 24.6697 152.581 25.1998C152.578 25.5688 152.574 25.9377 152.571 26.3067C152.562 27.2751 152.554 28.2435 152.546 29.2119C152.538 30.2012 152.529 31.1904 152.52 32.1796C152.502 34.1187 152.486 36.0578 152.47 37.9969C151.771 38.002 151.072 38.0051 150.372 38.0079C150.173 38.0094 149.973 38.0108 149.767 38.0124C149.577 38.0129 149.388 38.0135 149.192 38.0141C149.017 38.015 148.841 38.0159 148.66 38.0169C148.254 37.9969 148.254 37.9969 148.092 37.821C148.076 37.4741 148.072 37.1266 148.072 36.7793C148.071 36.5529 148.071 36.3265 148.07 36.0932C148.071 35.8399 148.071 35.5867 148.071 35.3334C148.071 35.0685 148.071 34.8036 148.07 34.5388C148.07 33.8174 148.07 33.096 148.07 32.3747C148.071 31.6214 148.07 30.8682 148.07 30.1149C148.07 28.8497 148.07 27.5846 148.071 26.3194C148.072 24.8545 148.072 23.3897 148.071 21.9248C148.07 20.6694 148.07 19.414 148.07 18.1587C148.071 17.4079 148.071 16.6571 148.07 15.9063C148.07 15.2006 148.07 14.4949 148.071 13.7892C148.071 13.5295 148.071 13.2697 148.071 13.01C148.07 12.6569 148.071 12.3038 148.072 11.9507C148.072 11.7526 148.072 11.5546 148.072 11.3505C148.092 10.9091 148.092 10.9091 148.254 10.7332C148.567 10.7178 148.88 10.7143 149.192 10.716C149.477 10.7168 149.477 10.7168 149.767 10.7177C150.067 10.7199 150.067 10.7199 150.372 10.7222C150.673 10.7234 150.673 10.7234 150.979 10.7246C151.476 10.7267 151.973 10.7298 152.47 10.7332C152.524 11.836 152.577 12.9389 152.632 14.0752C152.786 13.8684 152.94 13.6616 153.099 13.4485C156.645 9.09326 163.378 9.22545 167.451 12.6027Z" fill="#40322E"/>
<path d="M34.1022 24.9807C35.7342 26.8341 36.0946 28.7315 36.0726 31.2373C35.9955 33.1204 35.3215 34.8187 34.4264 36.4138C34.3194 36.4138 34.2124 36.4138 34.1022 36.4138C34.042 36.5662 34.042 36.5662 33.9805 36.7216C33.7482 37.1754 33.4885 37.48 33.1293 37.821C33.0222 37.821 32.9152 37.821 32.805 37.821C32.805 37.9371 32.805 38.0532 32.805 38.1728C32.3185 38.5246 32.3185 38.5246 31.8321 38.5246C31.8321 38.6407 31.8321 38.7568 31.8321 38.8764C31.4848 39.0468 31.1369 39.2149 30.7883 39.3821C30.5945 39.4759 30.4007 39.5698 30.2011 39.6665C28.9864 40.2015 27.7945 40.348 26.4913 40.3385C26.3486 40.3375 26.2059 40.3365 26.0588 40.3355C24.2246 40.2982 22.6588 39.7445 21.2855 38.3686C20.2428 37.141 19.7512 35.7437 19.3264 34.1602C19.2857 34.015 19.2449 33.8697 19.2029 33.7201C18.3207 30.4909 18.1226 27.0253 18.2421 23.6724C18.2469 23.5101 18.2518 23.3478 18.2568 23.1806C18.2643 23.0311 18.2717 22.8817 18.2794 22.7277C18.2857 22.5974 18.292 22.4672 18.2985 22.333C18.3939 21.8989 18.5379 21.7342 18.8602 21.4628C23.5344 20.4727 30.5082 21.4821 34.1022 24.9807Z" fill="#FFA400"/>
<path d="M13.7947 21.241C14.2262 21.2429 14.6576 21.241 15.089 21.2388C15.3643 21.239 15.6397 21.2394 15.915 21.2401C16.0435 21.2394 16.172 21.2387 16.3044 21.238C17.2015 21.2464 17.2015 21.2464 17.5631 21.6387C17.5976 22.1319 17.6123 22.6072 17.6118 23.1008C17.6125 23.2489 17.6132 23.3971 17.6139 23.5498C17.6149 23.8656 17.6149 24.1814 17.6142 24.4973C17.6137 24.9691 17.6175 25.4406 17.6216 25.9124C17.6344 29.6701 17.0463 33.3899 15.4551 36.7656C15.3481 36.7656 15.2411 36.7656 15.1308 36.7656C15.084 36.8999 15.0372 37.0341 14.989 37.1724C14.8065 37.6451 14.8065 37.6451 14.4822 38.1728C14.3752 38.1728 14.2682 38.1728 14.1579 38.1728C14.1579 38.2889 14.1579 38.405 14.1579 38.5246C14.0509 38.5246 13.9439 38.5246 13.8336 38.5246C13.8336 38.6407 13.8336 38.7568 13.8336 38.8764C11.9972 40.3252 9.9684 40.6948 7.74106 40.4051C6.3892 40.145 5.15218 39.567 3.94262 38.8764C3.94262 38.7603 3.94262 38.6442 3.94262 38.5246C3.67508 38.4085 3.40753 38.2924 3.13188 38.1728C3.13188 38.0567 3.13188 37.9406 3.13188 37.821C3.02486 37.821 2.91785 37.821 2.80759 37.821C2.80759 37.7049 2.80759 37.5888 2.80759 37.4692C2.70057 37.4692 2.59355 37.4692 2.48329 37.4692C0.852943 35.2413 0.155661 32.9251 0.152413 30.1146C0.148441 29.9358 0.14447 29.757 0.140378 29.5728C0.134045 27.7762 0.643073 26.3169 1.5104 24.8048C1.61742 24.8048 1.72444 24.8048 1.8347 24.8048C1.8347 24.6887 1.8347 24.5726 1.8347 24.453C1.94172 24.453 2.04873 24.453 2.15899 24.453C2.15899 24.3369 2.15899 24.2208 2.15899 24.1012C3.69289 23.2212 5.1708 22.4601 6.86129 21.9904C6.98126 21.9551 7.10124 21.9197 7.22485 21.8833C9.37894 21.3013 11.5878 21.2293 13.7947 21.241Z" fill="#40312E"/>
<path d="M32.4807 3.52145C32.4807 3.63755 32.4807 3.75364 32.4807 3.87324C32.5877 3.87324 32.6947 3.87324 32.805 3.87324C32.805 3.98934 32.805 4.10543 32.805 4.22503C32.912 4.22503 33.019 4.22503 33.1292 4.22503C33.1292 4.34113 33.1292 4.45722 33.1292 4.57682C33.2363 4.57682 33.3433 4.57682 33.4535 4.57682C34.9316 6.79101 35.7888 9.1399 35.7642 11.8875C35.766 12.0982 35.766 12.0982 35.768 12.3131C35.7623 14.1951 35.1977 15.7319 34.2339 17.2852C30.7374 20.9939 24.4959 20.8206 19.9871 20.7847C19.4928 20.7583 19.0221 20.6817 18.5359 20.5833C17.198 16.2291 18.3979 9.8784 20.1574 5.80809C20.3662 5.39228 20.5842 4.98483 20.806 4.57682C20.913 4.57682 21.02 4.57682 21.1303 4.57682C21.1702 4.47525 21.2101 4.37367 21.2513 4.26901C21.8932 3.01943 23.1461 2.19247 24.3733 1.7625C27.2219 0.944684 30.099 1.79909 32.4807 3.52145Z" fill="#40312E"/>
<path d="M13.5094 2.64199C13.69 2.75082 13.8705 2.85966 14.0566 2.97179C16.612 5.21582 17.2185 9.22047 17.6391 12.5698C17.758 14.0011 17.7402 15.4424 17.7455 16.8785C17.7467 17.1884 17.7467 17.1884 17.7479 17.5045C17.746 18.4903 17.7272 19.4368 17.5631 20.4074C12.5481 21.1208 6.79202 20.7091 2.48329 17.5931C2.48329 17.477 2.48329 17.3609 2.48329 17.2413C2.3328 17.176 2.3328 17.176 2.17927 17.1094C1.77784 16.8532 1.68046 16.6471 1.51041 16.1859C1.40339 16.1859 1.29637 16.1859 1.18611 16.1859C1.05602 15.9231 0.928098 15.6589 0.801009 15.3944C0.729525 15.2475 0.65804 15.1005 0.58439 14.9491C0.111123 13.7668 -0.00795377 12.666 0.000403384 11.3928C0.00131784 11.2463 0.0022323 11.0998 0.00317447 10.9489C0.0511913 8.28758 0.910454 6.47303 2.52637 4.5095C2.80759 4.22504 2.80759 4.22504 3.13189 4.22504C3.13189 4.10895 3.13189 3.99286 3.13189 3.87325C5.91372 1.66827 10.4247 0.555893 13.5094 2.64199Z" fill="#FFA400"/>
<path d="M83.1918 0.000127711C83.3516 0.000623704 83.5114 0.0011197 83.676 0.00163072C83.858 0.00258728 83.858 0.00258728 84.0437 0.00356316C84.0484 0.644844 84.0513 1.28612 84.0539 1.92742C84.0552 2.11051 84.0566 2.2936 84.058 2.48224C84.0585 2.65626 84.059 2.83029 84.0596 3.00958C84.0604 3.17078 84.0613 3.33198 84.0622 3.49806C84.0437 3.87325 84.0437 3.87325 83.8816 4.04915C83.5311 4.1066 83.1795 4.15657 82.8276 4.20306C81.4401 4.38168 81.4401 4.38168 80.1522 4.92862C79.9634 5.22154 79.9634 5.22154 79.8279 5.6322C79.7449 5.83899 79.6619 6.04578 79.5764 6.25883C79.2751 7.14602 79.214 8.03737 79.1489 8.97421C79.1054 9.55466 79.062 10.1351 79.0172 10.7332C80.7829 10.7332 82.5487 10.7332 84.368 10.7332C84.368 12.0102 84.368 13.2872 84.368 14.6029C82.6022 14.6029 80.8365 14.6029 79.0172 14.6029C79.0172 22.3229 79.0172 30.0429 79.0172 37.9969C77.6259 37.9969 76.2347 37.9969 74.8013 37.9969C74.8013 30.2769 74.8013 22.5568 74.8013 14.6029C73.7311 14.6029 72.661 14.6029 71.5583 14.6029C71.5583 13.3259 71.5583 12.0489 71.5583 10.7332C72.6285 10.7332 73.6987 10.7332 74.8013 10.7332C74.7957 10.4656 74.79 10.1981 74.7842 9.92239C74.7409 7.02865 74.7941 4.4762 76.6964 2.24622C78.4231 0.485207 80.8901 -0.00915443 83.1918 0.000127711Z" fill="#40322E"/>
<path d="M43.0203 3.34557C44.465 3.34557 45.9098 3.34557 47.3983 3.34557C47.3983 13.5035 47.3983 23.6614 47.3983 34.1272C51.0369 34.1272 54.6755 34.1272 58.4244 34.1272C58.4244 35.4042 58.4244 36.6812 58.4244 37.9969C53.341 37.9969 48.2577 37.9969 43.0203 37.9969C43.0203 26.562 43.0203 15.127 43.0203 3.34557Z" fill="#40322E"/>
<path d="M117.284 3.34557C118.675 3.34557 120.067 3.34557 121.5 3.34557C121.5 13.5035 121.5 23.6614 121.5 34.1272C125.192 34.1272 128.884 34.1272 132.688 34.1272C132.688 35.4042 132.688 36.6812 132.688 37.9969C127.605 37.9969 122.521 37.9969 117.284 37.9969C117.284 26.562 117.284 15.127 117.284 3.34557Z" fill="#40322E"/>
<path d="M136.904 10.7332C138.349 10.7332 139.793 10.7332 141.282 10.7332C141.282 19.7302 141.282 28.7272 141.282 37.9969C139.837 37.9969 138.392 37.9969 136.904 37.9969C136.904 28.9999 136.904 20.0028 136.904 10.7332Z" fill="#40322E"/>
<path d="M62.8023 10.7332C64.1936 10.7332 65.5848 10.7332 67.0182 10.7332C67.0182 19.7302 67.0182 28.7272 67.0182 37.9969C65.627 37.9969 64.2357 37.9969 62.8023 37.9969C62.8023 28.9999 62.8023 20.0028 62.8023 10.7332Z" fill="#40322E"/>
<path d="M143.643 61.9406C144.311 62.357 144.735 62.8196 145.174 63.5017C145.274 63.3457 145.374 63.1897 145.478 63.029C146.197 62.1139 147.072 61.6358 148.17 61.494C149.453 61.4612 150.552 61.4813 151.528 62.4449C152.849 63.9652 152.985 65.5292 152.972 67.5466C152.972 67.6932 152.972 67.8398 152.972 67.9909C152.971 68.455 152.969 68.9191 152.967 69.3832C152.966 69.6996 152.965 70.016 152.965 70.3324C152.963 71.1043 152.96 71.8763 152.957 72.6482C152.315 72.6482 151.672 72.6482 151.011 72.6482C151.009 72.4309 151.008 72.2135 151.006 71.9896C151 71.1795 150.989 70.3695 150.977 69.5595C150.973 69.2097 150.969 68.8597 150.967 68.5098C150.963 68.0054 150.956 67.5012 150.948 66.9969C150.947 66.8417 150.947 66.6864 150.947 66.5265C150.925 65.4929 150.751 64.8791 150.2 64.0294C149.47 63.3935 148.816 63.4133 147.911 63.4398C147.278 63.5236 146.932 63.7309 146.471 64.2053C145.98 64.94 145.808 65.6011 145.789 66.4979C145.786 66.6352 145.782 66.7725 145.779 66.9139C145.775 67.1336 145.775 67.1336 145.771 67.3576C145.767 67.5089 145.764 67.6602 145.761 67.816C145.75 68.2981 145.74 68.7802 145.731 69.2622C145.724 69.5895 145.717 69.9168 145.71 70.2441C145.692 71.0455 145.676 71.8468 145.66 72.6482C145.071 72.6482 144.483 72.6482 143.876 72.6482C143.874 72.4415 143.872 72.2348 143.869 72.0219C143.86 71.2512 143.847 70.4805 143.834 69.7098C143.828 69.377 143.824 69.0442 143.82 68.7113C143.815 68.2314 143.806 67.7516 143.797 67.2717C143.796 67.1242 143.795 66.9767 143.794 66.8246C143.768 65.7012 143.589 64.8463 142.903 63.9634C142.163 63.3107 141.215 63.4223 140.309 63.5017C139.628 63.8005 139.268 64.2604 138.85 64.9088C138.705 65.3808 138.664 65.6725 138.654 66.1584C138.651 66.3028 138.648 66.4471 138.645 66.5958C138.64 66.8284 138.64 66.8284 138.636 67.0656C138.633 67.2249 138.63 67.3843 138.626 67.5484C138.616 68.0574 138.606 68.5664 138.596 69.0754C138.589 69.4204 138.582 69.7654 138.575 70.1105C138.558 70.9564 138.541 71.8023 138.525 72.6482C137.883 72.6482 137.241 72.6482 136.58 72.6482C136.58 69.0494 136.58 65.4506 136.58 61.7427C137.222 61.7427 137.864 61.7427 138.525 61.7427C138.579 62.033 138.632 62.3232 138.688 62.6222C138.776 62.5608 138.864 62.4993 138.954 62.436C139.128 62.3159 139.128 62.3159 139.306 62.1935C139.421 62.1139 139.535 62.0343 139.654 61.9523C140.806 61.2235 142.466 61.3406 143.643 61.9406Z" fill="#40322E"/>
<path d="M33.0583 61.9406C33.726 62.357 34.1499 62.8196 34.5886 63.5017C34.6889 63.3457 34.7893 63.1897 34.8926 63.029C35.612 62.1139 36.4867 61.6358 37.5852 61.494C38.8684 61.4612 39.9674 61.4813 40.9428 62.4449C42.264 63.9652 42.3996 65.5292 42.3875 67.5466C42.3873 67.6932 42.3871 67.8398 42.3868 67.9909C42.3859 68.455 42.3839 68.9191 42.3818 69.3832C42.381 69.6996 42.3803 70.016 42.3796 70.3324C42.3778 71.1043 42.375 71.8763 42.3717 72.6482C41.7296 72.6482 41.0875 72.6482 40.4259 72.6482C40.4244 72.4309 40.4229 72.2135 40.4213 71.9896C40.4148 71.1795 40.4042 70.3695 40.3923 69.5595C40.3877 69.2097 40.3843 68.8597 40.382 68.5098C40.3785 68.0054 40.3709 67.5012 40.3626 66.9969C40.3624 66.8417 40.3622 66.6864 40.362 66.5265C40.3396 65.4929 40.1658 64.8791 39.6152 64.0294C38.8852 63.3935 38.2307 63.4133 37.3261 63.4398C36.6931 63.5236 36.3467 63.7309 35.8858 64.2053C35.3947 64.94 35.2227 65.6011 35.2039 66.4979C35.2007 66.6352 35.1974 66.7725 35.1941 66.9139C35.19 67.1336 35.19 67.1336 35.1859 67.3576C35.1825 67.5089 35.1791 67.6602 35.1757 67.816C35.1651 68.2981 35.1555 68.7802 35.146 69.2622C35.139 69.5895 35.1319 69.9168 35.1248 70.2441C35.1074 71.0455 35.091 71.8468 35.075 72.6482C34.4864 72.6482 33.8978 72.6482 33.2914 72.6482C33.289 72.4415 33.2867 72.2348 33.2842 72.0219C33.2748 71.2512 33.2623 70.4805 33.2489 69.7098C33.2435 69.377 33.2389 69.0442 33.2352 68.7113C33.2298 68.2314 33.2213 67.7516 33.2122 67.2717C33.2112 67.1242 33.2102 66.9767 33.2091 66.8246C33.1835 65.7012 33.0039 64.8463 32.3185 63.9634C31.578 63.3107 30.6302 63.4223 29.7242 63.5017C29.0427 63.8005 28.6833 64.2604 28.2648 64.9088C28.1198 65.3808 28.079 65.6725 28.0694 66.1584C28.0661 66.3028 28.0629 66.4471 28.0596 66.5958C28.0555 66.8284 28.0555 66.8284 28.0514 67.0656C28.048 67.2249 28.0446 67.3843 28.0412 67.5484C28.0306 68.0574 28.021 68.5664 28.0115 69.0754C28.0045 69.4204 27.9974 69.7654 27.9902 70.1105C27.9729 70.9564 27.9565 71.8023 27.9405 72.6482C27.2984 72.6482 26.6563 72.6482 25.9948 72.6482C25.9948 69.0494 25.9948 65.4506 25.9948 61.7427C26.6369 61.7427 27.279 61.7427 27.9405 61.7427C27.994 62.033 28.0475 62.3232 28.1027 62.6222C28.1907 62.5608 28.2787 62.4993 28.3693 62.436C28.5433 62.3159 28.5433 62.3159 28.7209 62.1935C28.8356 62.1139 28.9504 62.0343 29.0686 61.9523C30.2206 61.2235 31.8811 61.3406 33.0583 61.9406Z" fill="#40322E"/>
<path d="M21.6167 57.873C22.2053 57.873 22.7939 57.873 23.4004 57.873C23.4004 62.7488 23.4004 67.6247 23.4004 72.6482C22.8118 72.6482 22.2232 72.6482 21.6167 72.6482C21.5365 71.9517 21.5365 71.9517 21.4546 71.2411C21.3704 71.3259 21.2861 71.4107 21.1993 71.498C20.1449 72.534 19.3193 72.9736 17.8873 73C16.4488 72.8988 15.3509 72.4046 14.3549 71.2603C13.4439 70.0268 13.0946 68.7867 13.1141 67.2175C13.1153 67.0787 13.1166 66.94 13.1178 66.7971C13.1577 65.2621 13.5436 64.0304 14.5183 62.8922C15.7295 61.7574 16.9231 61.5022 18.4827 61.5174C19.7717 61.6355 20.4682 62.2582 21.4546 63.1499C21.5081 61.4085 21.5616 59.6672 21.6167 57.873ZM15.8136 64.4038C15.0349 65.6189 14.8564 66.6045 14.9687 68.0749C15.1767 69.0842 15.5962 69.8111 16.2659 70.5375C17.1434 71.1376 18.0131 71.356 19.0325 71.1201C20.0996 70.782 20.7573 70.1876 21.2925 69.1303C21.724 67.8663 21.7891 66.6849 21.3108 65.4406C20.8104 64.4539 20.1936 63.6606 19.1845 63.3258C17.8816 63.1441 16.6937 63.2678 15.8136 64.4038Z" fill="#40322E"/>
<path d="M162.037 62.0945C162.438 62.4224 162.811 62.7714 163.172 63.1499C163.225 62.6855 163.279 62.2212 163.334 61.7427C163.923 61.7427 164.511 61.7427 165.118 61.7427C165.118 65.3415 165.118 68.9404 165.118 72.6482C164.529 72.6482 163.941 72.6482 163.334 72.6482C163.254 71.9517 163.254 71.9517 163.172 71.2411C163.103 71.3111 163.034 71.3812 162.964 71.4534C162.868 71.5466 162.773 71.6398 162.675 71.7358C162.583 71.8276 162.491 71.9194 162.396 72.014C161.141 73.0011 159.786 72.9875 158.308 72.8241C156.923 72.4166 155.926 71.3472 155.206 70.027C154.508 68.3043 154.64 66.2787 155.18 64.5371C155.637 63.3653 156.497 62.4963 157.518 61.8891C158.897 61.3021 160.74 61.2558 162.037 62.0945ZM157.355 64.5351C156.618 65.7099 156.554 66.8594 156.686 68.2508C156.997 69.5281 157.573 70.228 158.603 70.9085C159.476 71.2956 160.568 71.1793 161.449 70.8783C162.489 70.0456 163.041 69.1388 163.294 67.7671C163.395 66.7017 163.187 65.788 162.716 64.8539C162.125 64.0666 161.445 63.4045 160.494 63.2667C159.205 63.2467 158.243 63.4708 157.355 64.5351Z" fill="#40322E"/>
<path d="M124.419 62.2704C124.736 62.545 124.968 62.8098 125.229 63.1499C125.283 62.6855 125.336 62.2212 125.391 61.7427C125.98 61.7427 126.569 61.7427 127.175 61.7427C127.175 65.3415 127.175 68.9403 127.175 72.6482C126.587 72.6482 125.998 72.6482 125.391 72.6482C125.311 71.9517 125.311 71.9517 125.229 71.241C125.106 71.3683 125.106 71.3683 124.98 71.498C123.967 72.506 123.062 72.9712 121.662 73C120.223 72.8961 119.126 72.405 118.13 71.2603C117.219 70.0268 116.869 68.7867 116.889 67.2175C116.89 67.0787 116.891 66.94 116.893 66.7971C116.932 65.2621 117.318 64.0303 118.293 62.8922C120.012 61.2819 122.445 61.025 124.419 62.2704ZM119.588 64.4038C118.81 65.6189 118.631 66.6045 118.743 68.0749C118.951 69.0842 119.371 69.8111 120.041 70.5375C120.918 71.1376 121.788 71.356 122.807 71.1201C123.874 70.782 124.532 70.1876 125.067 69.1303C125.499 67.8663 125.564 66.6849 125.086 65.4406C124.585 64.4539 123.968 63.6606 122.959 63.3258C121.656 63.1441 120.468 63.2678 119.588 64.4038Z" fill="#40322E"/>
<path d="M190.861 62.4635C191.868 63.2767 192.416 64.4313 192.639 65.745C192.81 67.2717 192.81 67.2717 192.521 67.899C189.899 67.899 187.277 67.899 184.575 67.899C185.076 69.7051 185.076 69.7051 186.197 70.7134C187.121 71.1611 187.996 71.1991 188.964 70.8893C189.533 70.6475 189.741 70.3599 190.058 69.8009C190.286 69.4251 190.286 69.4251 190.575 69.1303C191.184 69.0085 191.747 69.0453 192.359 69.1303C192.256 70.2996 191.798 71.0249 191.011 71.8017C189.876 72.7981 188.636 73.0947 187.202 72.956C185.72 72.7068 184.639 72.2207 183.691 70.9305C182.656 69.3052 182.595 67.5303 182.792 65.6124C183.067 64.2661 183.715 63.1294 184.778 62.3577C186.693 61.1598 188.975 61.1915 190.861 62.4635ZM185.17 64.5069C184.825 65.1123 184.706 65.6107 184.575 66.316C186.609 66.316 188.642 66.316 190.737 66.316C190.562 64.9836 190.399 64.4442 189.45 63.6116C188.017 62.8176 186.164 63.1223 185.17 64.5069Z" fill="#40322E"/>
<path d="M5.71676 58.9112C6.0074 58.9143 6.0074 58.9143 6.30392 58.9174C6.59518 58.9198 6.59518 58.9198 6.89234 58.9222C7.04262 58.9242 7.19291 58.9263 7.34774 58.9284C8.54357 62.43 9.73061 65.9349 10.8947 69.4491C10.945 69.6006 10.9953 69.7521 11.0471 69.9081C11.1887 70.3351 11.33 70.7623 11.4711 71.1895C11.5136 71.3175 11.556 71.4454 11.5998 71.5772C11.8879 72.452 11.8879 72.452 11.8879 72.6482C11.2458 72.6482 10.6037 72.6482 9.94211 72.6482C9.80942 72.3152 9.6779 71.9816 9.54688 71.6478C9.43683 71.3693 9.43683 71.3693 9.32456 71.0851C9.13137 70.5375 9.13137 70.5375 8.96922 69.658C7.14992 69.658 5.33062 69.658 3.45619 69.658C3.40268 70.0063 3.34917 70.3545 3.29404 70.7134C3.09798 71.3677 2.86986 72.0043 2.64545 72.6482C2.00335 72.6482 1.36124 72.6482 0.699677 72.6482C0.937832 71.3046 1.33601 70.0652 1.77771 68.7854C1.85129 68.5697 1.92487 68.354 2.00069 68.1317C2.19526 67.5613 2.39096 66.9914 2.58691 66.4215C2.78443 65.8466 2.98094 65.2712 3.1775 64.6958C3.53141 63.6601 3.88636 62.6248 4.24178 61.5897C4.48228 60.8827 4.71599 60.1732 4.94797 59.4629C5.14591 58.9156 5.14678 58.9317 5.71676 58.9112ZM6.21271 61.5668C5.64008 62.9555 5.16432 64.3746 4.70271 65.8103C4.64408 65.9918 4.58545 66.1733 4.52504 66.3603C4.47059 66.5312 4.41614 66.702 4.36004 66.878C4.31086 67.0322 4.26167 67.1864 4.211 67.3453C4.08902 67.7134 4.08902 67.7134 4.10478 68.0749C5.49601 68.0749 6.88724 68.0749 8.32063 68.0749C8.11475 67.0699 7.92708 66.2081 7.60997 65.2599C7.53786 65.0428 7.46575 64.8257 7.39145 64.602C7.31609 64.3782 7.24072 64.1543 7.16533 63.9304C7.08861 63.7004 7.01196 63.4703 6.93541 63.2402C6.74935 62.6821 6.56248 62.1243 6.37486 61.5668C6.32135 61.5668 6.26784 61.5668 6.21271 61.5668Z" fill="#40322E"/>
<path d="M105.772 57.873C106.36 57.873 106.949 57.873 107.555 57.873C107.609 59.4983 107.662 61.1236 107.717 62.7981C107.985 62.5659 108.252 62.3337 108.528 62.0945C109.69 61.3439 111.013 61.4158 112.323 61.6307C113.303 61.9403 113.968 62.784 114.528 63.6776C114.915 64.6394 114.894 65.5383 114.884 66.5675C114.883 66.7417 114.883 66.9159 114.882 67.0953C114.88 67.6491 114.876 68.2028 114.872 68.7565C114.871 69.1331 114.869 69.5096 114.868 69.8861C114.864 70.8068 114.859 71.7275 114.852 72.6482C114.263 72.6482 113.675 72.6482 113.068 72.6482C113.067 72.4371 113.065 72.226 113.064 72.0085C113.057 71.2204 113.046 70.4324 113.035 69.6443C113.03 69.3042 113.027 68.964 113.024 68.6238C113.021 68.133 113.013 67.6423 113.005 67.1515C113.005 67.001 113.004 66.8505 113.004 66.6955C112.982 65.6776 112.796 64.8767 112.257 64.0294C111.547 63.4282 110.81 63.4109 109.937 63.4405C109.253 63.5364 108.91 63.7382 108.366 64.2052C107.7 65.3137 107.692 66.5158 107.666 67.8042C107.663 67.9433 107.659 68.0823 107.656 68.2256C107.645 68.6664 107.636 69.1072 107.626 69.5481C107.619 69.8483 107.612 70.1486 107.605 70.4488C107.588 71.1819 107.571 71.9151 107.555 72.6482C106.967 72.6482 106.378 72.6482 105.772 72.6482C105.772 67.7724 105.772 62.8966 105.772 57.873Z" fill="#40322E"/>
<path d="M79.8786 62.6442C81.0161 63.9642 81.5931 65.3964 81.6521 67.1955C81.5973 68.8653 81.1274 70.3737 80.0078 71.5681C78.7864 72.6218 77.3757 73.1106 75.8173 72.956C74.2151 72.6872 73.1984 72.1391 72.1575 70.7732C71.2382 69.3967 71.1552 67.7067 71.2632 66.0432C71.5013 64.5595 72.2186 63.3323 73.3318 62.4463C75.3874 61.0423 77.8624 61.2411 79.8786 62.6442ZM73.7676 64.634C73.0781 65.8135 73.0404 67.0701 73.1798 68.4267C73.4432 69.41 73.8325 70.1418 74.6189 70.7244C75.5571 71.2619 76.4004 71.3369 77.4096 71.0157C78.3818 70.6197 79.0117 69.9239 79.5036 68.9544C79.8283 67.9021 79.8511 66.4939 79.4732 65.4585C78.9862 64.5476 78.5198 63.7818 77.5711 63.4096C75.9819 63.015 74.8884 63.3862 73.7676 64.634Z" fill="#40322E"/>
<path d="M95.232 58.7525C101.278 58.7525 101.278 58.7525 102.843 59.7639C103.701 60.7794 104.038 61.9547 103.988 63.3258C103.823 64.3328 103.569 65.2671 102.853 65.9642C101.428 66.898 100.21 67.0469 98.5763 67.0306C97.8037 67.0251 97.8037 67.0251 97.0156 67.0196C97.0156 68.877 97.0156 70.7345 97.0156 72.6482C96.427 72.6482 95.8384 72.6482 95.232 72.6482C95.232 68.0626 95.232 63.4771 95.232 58.7525ZM97.0156 60.3356C97.0156 61.9608 97.0156 63.5861 97.0156 65.2606C97.8684 65.2824 97.8684 65.2824 98.7384 65.3046C99.0045 65.3142 99.0045 65.3142 99.2759 65.324C100.255 65.3361 100.813 65.2677 101.556 64.557C102.075 63.9005 102.117 63.3074 102.09 62.4724C101.993 61.7069 101.593 61.1805 101.069 60.6874C99.7947 60.1702 98.3497 60.3093 97.0156 60.3356Z" fill="#40322E"/>
<path d="M56.4077 61.9406C57.515 62.6436 58.092 63.5535 58.4244 64.9088C58.4852 65.5206 58.4814 66.1245 58.4719 66.7393C58.4712 66.909 58.4705 67.0788 58.4698 67.2538C58.4671 67.7914 58.461 68.3289 58.4548 68.8665C58.4523 69.2329 58.4501 69.5994 58.4481 69.9658C58.4428 70.86 58.4344 71.7541 58.4244 72.6482C57.8358 72.6482 57.2472 72.6482 56.6407 72.6482C56.6384 72.4434 56.636 72.2385 56.6336 72.0275C56.6241 71.2613 56.6116 70.4953 56.5982 69.7292C56.5928 69.3987 56.5883 69.0683 56.5846 68.7379C56.5791 68.2605 56.5706 67.7834 56.5616 67.3061C56.5605 67.1604 56.5595 67.0146 56.5584 66.8645C56.5362 65.8878 56.4417 64.8946 55.9922 64.0294C55.0366 63.3875 54.0024 63.389 52.9113 63.5017C52.1754 63.8798 51.8002 64.2895 51.452 65.0847C51.3219 65.5635 51.267 65.9998 51.2566 66.4979C51.2533 66.6352 51.2501 66.7725 51.2468 66.9139C51.2427 67.1336 51.2427 67.1336 51.2386 67.3576C51.2352 67.5089 51.2318 67.6602 51.2283 67.816C51.2178 68.2981 51.2082 68.7802 51.1987 69.2622C51.1916 69.5895 51.1846 69.9168 51.1774 70.2441C51.1601 71.0455 51.1437 71.8468 51.1277 72.6482C50.5391 72.6482 49.9505 72.6482 49.3441 72.6482C49.3441 69.0494 49.3441 65.4506 49.3441 61.7427C49.9327 61.7427 50.5213 61.7427 51.1277 61.7427C51.1812 62.091 51.2347 62.4393 51.2899 62.7981C51.4303 62.6602 51.5708 62.5224 51.7155 62.3804C52.9238 61.1945 54.9975 61.2274 56.4077 61.9406Z" fill="#40322E"/>
<path d="M200.466 62.0945C201.076 62.5357 201.459 62.9512 201.763 63.6776C201.847 64.1488 201.888 64.6052 201.925 65.0847C201.314 65.1684 200.75 65.2103 200.142 65.0847C199.83 64.7455 199.674 64.4371 199.493 64.0026C199.344 63.6155 199.344 63.6155 198.845 63.5017C197.961 63.3978 197.287 63.3365 196.534 63.8864C196.22 64.3483 196.22 64.3483 196.22 64.8319C196.528 65.5192 197.085 65.836 197.723 66.1082C198.095 66.2429 198.469 66.3694 198.845 66.4919C200.053 66.8855 201.29 67.3306 201.925 68.6026C202.051 69.5895 202.054 70.4244 201.652 71.329C200.75 72.3859 199.919 72.8614 198.607 72.9945C197.266 73.0124 196.028 72.6698 195.004 71.7138C194.36 70.9018 194.142 70.3868 194.142 69.3062C194.731 69.3062 195.319 69.3062 195.926 69.3062C196.009 69.4985 196.093 69.6908 196.179 69.8889C196.563 70.6124 196.964 70.8321 197.709 71.0652C198.565 71.1628 199.081 71.0131 199.817 70.5375C200.04 70.3324 200.04 70.3324 200.04 69.7679C200.02 69.5575 200 69.3471 199.98 69.1303C199.168 68.4166 198.021 68.19 197.034 67.876C195.924 67.4984 195.014 67.0072 194.396 65.8982C194.172 64.7679 194.231 63.9372 194.748 62.9314C195.968 61.0923 198.781 61.1641 200.466 62.0945Z" fill="#40322E"/>
<path d="M175.546 62.6442C176.2 63.4037 176.792 64.3705 176.792 65.4365C176.128 65.5193 175.508 65.5613 174.847 65.4365C174.533 65.1082 174.392 64.8221 174.224 64.3887C173.964 63.8916 173.702 63.7381 173.225 63.5017C172.312 63.3624 171.301 63.3167 170.459 63.7765C169.744 64.4194 169.352 65.1423 169.171 66.1401C169.055 67.5503 169.154 68.7705 169.82 70.0098C170.489 70.7542 171.122 71.0372 172.07 71.1201C172.921 71.094 173.595 70.7908 174.249 70.1967C174.567 69.8023 174.567 69.8023 174.847 69.1303C175.489 69.1303 176.131 69.1303 176.792 69.1303C176.565 70.3627 176.029 71.3467 175.09 72.1095C173.713 73.0586 172.186 73.1212 170.62 72.7987C169.317 72.3866 168.374 71.4362 167.682 70.1912C166.982 68.6525 167.001 66.7133 167.338 65.0607C167.841 63.5634 168.676 62.6461 169.958 61.909C171.81 61.0249 173.91 61.5057 175.546 62.6442Z" fill="#40322E"/>
<path d="M70.099 57.5212C70.099 58.0436 70.099 58.566 70.099 59.1043C69.9857 59.1322 69.8724 59.1601 69.7557 59.1888C68.8651 59.3967 68.8651 59.3967 68.2242 60.0277C68.2008 60.1874 68.1774 60.347 68.1532 60.5114C68.1031 60.8434 68.1031 60.8434 68.0519 61.182C68.0318 61.3671 68.0118 61.5521 67.9911 61.7427C68.6867 61.7427 69.3823 61.7427 70.099 61.7427C70.099 62.2651 70.099 62.7875 70.099 63.3258C69.4034 63.3258 68.7078 63.3258 67.9911 63.3258C67.9911 66.4022 67.9911 69.4786 67.9911 72.6482C67.4025 72.6482 66.8139 72.6482 66.2075 72.6482C66.2075 69.5718 66.2075 66.4954 66.2075 63.3258C65.7794 63.3258 65.3513 63.3258 64.9103 63.3258C64.9103 62.8034 64.9103 62.281 64.9103 61.7427C65.3383 61.7427 65.7664 61.7427 66.2075 61.7427C66.2018 61.63 66.1962 61.5173 66.1904 61.4012C66.1538 60.1323 66.3039 59.2671 67.0689 58.2578C68.0073 57.4292 68.9428 57.4766 70.099 57.5212Z" fill="#40322E"/>
<path d="M66.248 0.377342C67.0826 0.994615 67.6368 1.734 67.8289 2.81789C67.8753 3.96742 67.6785 4.81364 66.9846 5.69679C66.3805 6.29357 65.7979 6.49686 64.9876 6.5268C64.1003 6.47188 63.4778 6.29514 62.8024 5.63221C62.0401 4.58769 62.02 3.59285 62.1538 2.2902C62.4305 1.31898 62.9843 0.844801 63.7752 0.355356C64.6131 0.0523988 65.4139 0.0641409 66.248 0.377342Z" fill="#40322E"/>
<path d="M140.823 0.641184C141.531 1.21778 141.872 1.86505 142.002 2.81376C142.032 3.6485 141.999 4.24487 141.667 5.00558C140.826 5.98944 140.358 6.46932 139.097 6.53298C138.277 6.49032 137.676 6.30859 137.1 5.65351C136.407 4.68438 136.139 3.88604 136.255 2.64199C136.527 1.7284 136.865 1.13838 137.553 0.53125C138.664 -0.0313025 139.765 -0.0105513 140.823 0.641184Z" fill="#40322E"/>
<path d="M134.958 61.5668C134.958 62.2053 134.958 62.8438 134.958 63.5017C134.681 63.5488 134.403 63.596 134.117 63.6446C133.164 63.8252 133.164 63.8252 132.364 64.3811C131.887 65.3623 131.802 66.1733 131.794 67.2717C131.792 67.4261 131.789 67.5806 131.786 67.7397C131.777 68.2289 131.771 68.718 131.766 69.2073C131.761 69.5406 131.755 69.874 131.749 70.2073C131.735 71.0209 131.725 71.8345 131.715 72.6482C131.073 72.6482 130.431 72.6482 129.769 72.6482C129.769 69.0494 129.769 65.4506 129.769 61.7427C130.412 61.7427 131.054 61.7427 131.715 61.7427C131.769 62.091 131.822 62.4393 131.877 62.7981C132.021 62.6602 132.165 62.5224 132.313 62.3803C133.182 61.6044 133.858 61.5264 134.958 61.5668Z" fill="#40322E"/>
<path d="M88.5839 61.5668C88.5839 62.2053 88.5839 62.8438 88.5839 63.5017C88.4528 63.5296 88.3218 63.5575 88.1868 63.5862C86.8091 63.8852 86.8091 63.8852 85.8274 64.9088C85.5528 65.901 85.4507 66.8067 85.4359 67.8386C85.4328 67.9771 85.4297 68.1157 85.4264 68.2585C85.4168 68.6956 85.4093 69.1328 85.4017 69.5701C85.3955 69.8687 85.3892 70.1674 85.3827 70.466C85.3673 71.1934 85.3536 71.9208 85.3409 72.6482C84.7523 72.6482 84.1637 72.6482 83.5573 72.6482C83.5573 69.0494 83.5573 65.4506 83.5573 61.7427C84.1459 61.7427 84.7345 61.7427 85.3409 61.7427C85.3944 62.149 85.448 62.5554 85.5031 62.974C85.6134 62.8398 85.7238 62.7055 85.8375 62.5672C86.6857 61.7254 87.4462 61.4913 88.5839 61.5668Z" fill="#40322E"/>
<path d="M44.8039 61.7427C45.446 61.7427 46.0881 61.7427 46.7497 61.7427C46.7497 65.3415 46.7497 68.9403 46.7497 72.6482C46.1076 72.6482 45.4655 72.6482 44.8039 72.6482C44.8039 69.0494 44.8039 65.4506 44.8039 61.7427Z" fill="#40322E"/>
<path d="M178.9 61.7427C179.489 61.7427 180.077 61.7427 180.684 61.7427C180.684 65.3415 180.684 68.9403 180.684 72.6482C180.095 72.6482 179.507 72.6482 178.9 72.6482C178.9 69.0494 178.9 65.4506 178.9 61.7427Z" fill="#40322E"/>
<path d="M180.36 57.5212C180.765 57.884 180.765 57.884 181.008 58.4007C181.008 59.0696 180.975 59.4595 180.583 59.9838C180.017 60.2423 179.648 60.1569 179.062 59.9838C178.643 59.5873 178.585 59.3496 178.505 58.7525C178.576 58.2248 178.576 58.2248 178.829 57.8071C179.38 57.4088 179.711 57.4082 180.36 57.5212Z" fill="#40322E"/>
<path d="M46.2632 57.5212C46.6483 57.6971 46.6483 57.6971 46.9118 58.0489C47.0035 58.8324 47.037 59.2334 46.6585 59.9068C46.2632 60.1597 46.2632 60.1597 45.6856 60.1487C45.1282 59.9838 45.1282 59.9838 44.814 59.7859C44.5329 59.2477 44.5734 58.8285 44.6418 58.2248C45.0879 57.4988 45.4813 57.3975 46.2632 57.5212Z" fill="#40322E"/>
</svg>
