<svg width="84" height="84" viewBox="0 0 84 84" fill="none" xmlns="http://www.w3.org/2000/svg">
<circle cx="42" cy="42" r="42" fill="#438EF2" fill-opacity="0.21"/>
<path d="M47.25 62.8125H36.75C27.2475 62.8125 23.1875 58.7525 23.1875 49.25V38.75C23.1875 29.2475 27.2475 25.1875 36.75 25.1875H47.25C56.7525 25.1875 60.8125 29.2475 60.8125 38.75V49.25C60.8125 58.7525 56.7525 62.8125 47.25 62.8125ZM36.75 27.8125C28.6825 27.8125 25.8125 30.6825 25.8125 38.75V49.25C25.8125 57.3175 28.6825 60.1875 36.75 60.1875H47.25C55.3175 60.1875 58.1875 57.3175 58.1875 49.25V38.75C58.1875 30.6825 55.3175 27.8125 47.25 27.8125H36.75Z" fill="#438EF2"/>
<path d="M42.0011 45.8892C41.7736 45.8892 41.5461 45.8367 41.3361 45.7142L32.0611 40.3592C31.4311 39.9917 31.221 39.1867 31.5885 38.5742C31.956 37.9442 32.7611 37.7342 33.3736 38.1017L41.9836 43.0892L50.5411 38.1367C51.1711 37.7692 51.9761 37.9967 52.3261 38.6092C52.6761 39.2217 52.4661 40.0442 51.8536 40.3942L42.6486 45.7142C42.4561 45.8192 42.2286 45.8892 42.0011 45.8892Z" fill="#438EF2"/>
<path d="M42 55.4106C41.2825 55.4106 40.6875 54.8156 40.6875 54.0981V44.5781C40.6875 43.8606 41.2825 43.2656 42 43.2656C42.7175 43.2656 43.3125 43.8606 43.3125 44.5781V54.0981C43.3125 54.8156 42.7175 55.4106 42 55.4106Z" fill="#438EF2"/>
<path d="M42.0004 55.8119C40.9854 55.8119 39.988 55.5844 39.183 55.1469L33.5829 52.0319C31.9029 51.1044 30.6079 48.8819 30.6079 46.9569V41.0244C30.6079 39.1169 31.9204 36.8944 33.5829 35.9494L39.183 32.8344C40.793 31.9419 43.2079 31.9419 44.8179 32.8344L50.4179 35.9494C52.0979 36.8769 53.393 39.0994 53.393 41.0244V46.9569C53.393 48.8644 52.0804 51.0869 50.4179 52.0319L44.8179 55.1469C44.0129 55.6019 43.0154 55.8119 42.0004 55.8119ZM42.0004 34.8119C41.4229 34.8119 40.8629 34.9169 40.4604 35.1444L34.8605 38.2594C34.003 38.7319 33.2329 40.0619 33.2329 41.0244V46.9569C33.2329 47.9369 34.003 49.2494 34.8605 49.7219L40.4604 52.8369C41.2654 53.2919 42.7354 53.2919 43.5404 52.8369L49.1404 49.7219C49.9979 49.2494 50.768 47.9194 50.768 46.9569V41.0244C50.768 40.0444 49.9979 38.7319 49.1404 38.2594L43.5404 35.1444C43.1379 34.9169 42.5779 34.8119 42.0004 34.8119Z" fill="#438EF2"/>
</svg>
