<svg width="84" height="84" viewBox="0 0 84 84" fill="none" xmlns="http://www.w3.org/2000/svg">
<circle cx="42" cy="42" r="42" fill="#FABE24" fill-opacity="0.3"/>
<path d="M46.0664 53.7501L48.5997 56.2835L53.6664 51.2168" stroke="#FABE24" stroke-width="2.5" stroke-linecap="round" stroke-linejoin="round"/>
<path d="M42.2673 40.1171C42.1006 40.1004 41.9006 40.1004 41.7173 40.1171C37.7506 39.9837 34.6006 36.7337 34.6006 32.7337C34.584 28.6504 37.9006 25.3337 41.984 25.3337C46.0673 25.3337 49.384 28.6504 49.384 32.7337C49.384 36.7337 46.2173 39.9837 42.2673 40.1171Z" stroke="#FABE24" stroke-width="2.5" stroke-linecap="round" stroke-linejoin="round"/>
<path d="M41.9834 58.3499C38.9501 58.3499 35.9334 57.5832 33.6334 56.0499C29.6001 53.3499 29.6001 48.9499 33.6334 46.2666C38.2167 43.1999 45.7334 43.1999 50.3167 46.2666" stroke="#FABE24" stroke-width="2.5" stroke-linecap="round" stroke-linejoin="round"/>
</svg>
