<svg width="84" height="84" viewBox="0 0 84 84" fill="none" xmlns="http://www.w3.org/2000/svg">
<circle cx="42" cy="42" r="42" fill="#438EF2" fill-opacity="0.21"/>
<path d="M38.0302 41.0225C37.8552 41.005 37.6452 41.005 37.4527 41.0225C33.2877 40.8825 29.9802 37.47 29.9802 33.27C29.9802 28.9825 33.4452 25.5 37.7502 25.5C42.0377 25.5 45.5202 28.9825 45.5202 33.27C45.5027 37.47 42.1952 40.8825 38.0302 41.0225Z" stroke="#438EF2" stroke-width="2.625" stroke-linecap="round" stroke-linejoin="round"/>
<path d="M50.7171 29C54.1121 29 56.8421 31.7475 56.8421 35.125C56.8421 38.4325 54.2171 41.1275 50.9446 41.25C50.8046 41.2325 50.6471 41.2325 50.4896 41.25" stroke="#438EF2" stroke-width="2.625" stroke-linecap="round" stroke-linejoin="round"/>
<path d="M29.2805 47.48C25.0455 50.315 25.0455 54.935 29.2805 57.7525C34.093 60.9725 41.9855 60.9725 46.798 57.7525C51.033 54.9175 51.033 50.2975 46.798 47.48C42.003 44.2775 34.1105 44.2775 29.2805 47.48Z" stroke="#438EF2" stroke-width="2.625" stroke-linecap="round" stroke-linejoin="round"/>
<path d="M54.0947 57C55.3547 56.7375 56.5447 56.23 57.5247 55.4775C60.2547 53.43 60.2547 50.0525 57.5247 48.005C56.5622 47.27 55.3897 46.78 54.1472 46.5" stroke="#438EF2" stroke-width="2.625" stroke-linecap="round" stroke-linejoin="round"/>
</svg>
