<svg width="84" height="84" viewBox="0 0 84 84" fill="none" xmlns="http://www.w3.org/2000/svg">
<circle cx="42" cy="42" r="42" fill="#00AC4F" fill-opacity="0.3"/>
<path d="M41.7937 31.7987L41.2541 31.2582L40.9242 30.9279L41.2312 30.5762C41.4167 30.3636 41.604 30.1576 41.793 29.9581C38.3014 26.6449 34.485 25.7771 31.3616 27.086L41.7937 31.7987ZM41.7937 31.7987L41.6271 31.9654C38.2058 28.2683 34.5842 27.4588 31.8652 28.5994L31.865 28.5995C29.1546 29.7379 27.0805 32.9231 26.9485 37.8265H25.5062C25.6405 32.4081 27.9605 28.5134 31.3614 27.0861L41.7937 31.7987ZM25.5117 38.8265C25.6678 42.1913 27.3731 45.5343 29.5334 48.4843C31.692 51.4316 34.3829 54.0958 36.7101 56.1512L37.6429 54.9196C35.3485 52.8978 32.7281 50.3008 30.6492 47.4608L25.5117 38.8265ZM25.5117 38.8265H26.9559M25.5117 38.8265H26.9559M26.9559 38.8265C27.1126 41.6449 28.5696 44.6217 30.6491 47.4607L26.9559 38.8265ZM42.4991 30.6666C42.5677 30.7392 42.6361 30.8129 42.7044 30.8875L42.5006 31.0914L42.2954 30.8858C42.3631 30.8118 42.431 30.7387 42.4991 30.6666ZM37.465 56.8106L38.399 55.5776C39.312 56.3656 39.9819 56.9182 40.5535 57.2791C41.0655 57.6023 41.5137 57.7818 42 57.8511V59.4744C40.3906 59.3059 39.1968 58.3163 37.465 56.8106ZM43 59.4744V57.851C43.4865 57.7815 43.9348 57.6016 44.4467 57.2781C45.0181 56.9169 45.6879 56.364 46.6008 55.5761L47.5349 56.8106C45.8032 58.3163 44.6094 59.3059 43 59.4744ZM53.637 27.0861C57.0393 28.5117 59.3594 32.4062 59.4938 37.823H58.0515C57.9195 32.9214 55.8455 29.7344 53.1348 28.5976C50.4157 27.4571 46.7942 28.2683 43.3731 31.9652L43.2072 31.799L43.7457 31.2601L44.076 30.9297L43.7687 30.5778C43.5826 30.3646 43.3946 30.1579 43.2049 29.9579C46.6968 26.6421 50.5128 25.7753 53.6368 27.086L53.637 27.0861ZM58.0441 38.823H59.4883C59.3323 42.1894 57.627 45.5326 55.4666 48.4825C53.3081 51.4298 50.6172 54.0939 48.2888 56.1493L47.357 54.918C49.6514 52.8962 52.272 50.2991 54.3509 47.4589L54.3509 47.4589C56.4288 44.6199 57.8874 41.6445 58.0441 38.823ZM42.4067 32.5999L42.5 32.5066L42.5933 32.5999C42.5623 32.6044 42.5311 32.6067 42.5 32.6067C42.4689 32.6067 42.4377 32.6044 42.4067 32.5999Z" fill="#00AC4F" stroke="#00AC4F"/>
<path d="M52 37.5H49H52ZM49 37.5H46H49ZM49 37.5V35V37.5ZM49 37.5V40V37.5Z" fill="#00AC4F"/>
<path d="M52 37.5H49M49 37.5H46M49 37.5V35M49 37.5V40" stroke="#00AC4F" stroke-width="1.5" stroke-linecap="round"/>
</svg>
