<svg width="84" height="84" viewBox="0 0 84 84" fill="none" xmlns="http://www.w3.org/2000/svg">
<circle cx="42" cy="42" r="42" fill="#438EF2" fill-opacity="0.21"/>
<path d="M37.0302 40.0225C36.8552 40.005 36.6452 40.005 36.4527 40.0225C32.2877 39.8825 28.9802 36.47 28.9802 32.27C28.9802 27.9825 32.4452 24.5 36.7502 24.5C41.0377 24.5 44.5202 27.9825 44.5202 32.27C44.5027 36.47 41.1952 39.8825 37.0302 40.0225Z" stroke="#438EF2" stroke-width="2.625" stroke-linecap="round" stroke-linejoin="round"/>
<path d="M49.7171 28C53.1121 28 55.8421 30.7475 55.8421 34.125C55.8421 37.4325 53.2171 40.1275 49.9446 40.25C49.8046 40.2325 49.6471 40.2325 49.4896 40.25" stroke="#438EF2" stroke-width="2.625" stroke-linecap="round" stroke-linejoin="round"/>
<path d="M28.2805 46.48C24.0455 49.315 24.0455 53.935 28.2805 56.7525C33.093 59.9725 40.9855 59.9725 45.798 56.7525C50.033 53.9175 50.033 49.2975 45.798 46.48C41.003 43.2775 33.1105 43.2775 28.2805 46.48Z" stroke="#438EF2" stroke-width="2.625" stroke-linecap="round" stroke-linejoin="round"/>
<path d="M53.0947 56C54.3547 55.7375 55.5447 55.23 56.5247 54.4775C59.2547 52.43 59.2547 49.0525 56.5247 47.005C55.5622 46.27 54.3897 45.78 53.1472 45.5" stroke="#438EF2" stroke-width="2.625" stroke-linecap="round" stroke-linejoin="round"/>
</svg>
