<svg width="84" height="84" viewBox="0 0 84 84" fill="none" xmlns="http://www.w3.org/2000/svg">
<circle cx="42" cy="42" r="42" fill="#438EF2" fill-opacity="0.21"/>
<path d="M43.8375 50.8378H40.5475C38.22 50.8378 36.3125 48.8778 36.3125 46.4628C36.3125 45.7453 36.9075 45.1503 37.625 45.1503C38.3425 45.1503 38.9375 45.7453 38.9375 46.4628C38.9375 47.4253 39.655 48.2128 40.5475 48.2128H43.8375C44.52 48.2128 45.0625 47.6003 45.0625 46.8478C45.0625 45.9028 44.8 45.7628 44.205 45.5528L38.9375 43.7153C37.8175 43.3303 36.3125 42.5078 36.3125 39.9353C36.3125 37.7478 38.045 35.9453 40.1625 35.9453H43.4525C45.78 35.9453 47.6875 37.9053 47.6875 40.3203C47.6875 41.0378 47.0925 41.6328 46.375 41.6328C45.6575 41.6328 45.0625 41.0378 45.0625 40.3203C45.0625 39.3578 44.345 38.5703 43.4525 38.5703H40.1625C39.48 38.5703 38.9375 39.1828 38.9375 39.9353C38.9375 40.8803 39.2 41.0203 39.795 41.2303L45.0625 43.0678C46.1825 43.4528 47.6875 44.2753 47.6875 46.8478C47.6875 49.0528 45.955 50.8378 43.8375 50.8378Z" fill="#438EF2"/>
<path d="M42 52.5879C41.2825 52.5879 40.6875 51.9929 40.6875 51.2754V35.5254C40.6875 34.8079 41.2825 34.2129 42 34.2129C42.7175 34.2129 43.3125 34.8079 43.3125 35.5254V51.2754C43.3125 51.9929 42.7175 52.5879 42 52.5879Z" fill="#438EF2"/>
<path d="M42 62.2129C31.6225 62.2129 23.1875 53.7779 23.1875 43.4004C23.1875 33.0229 31.6225 24.5879 42 24.5879C42.7175 24.5879 43.3125 25.1829 43.3125 25.9004C43.3125 26.6179 42.7175 27.2129 42 27.2129C33.075 27.2129 25.8125 34.4754 25.8125 43.4004C25.8125 52.3254 33.075 59.5879 42 59.5879C50.925 59.5879 58.1875 52.3254 58.1875 43.4004C58.1875 42.6829 58.7825 42.0879 59.5 42.0879C60.2175 42.0879 60.8125 42.6829 60.8125 43.4004C60.8125 53.7779 52.3775 62.2129 42 62.2129Z" fill="#438EF2"/>
<path d="M57.75 35.9629H50.75C50.0325 35.9629 49.4375 35.3679 49.4375 34.6504V27.6504C49.4375 26.9329 50.0325 26.3379 50.75 26.3379C51.4675 26.3379 52.0625 26.9329 52.0625 27.6504V33.3379H57.75C58.4675 33.3379 59.0625 33.9329 59.0625 34.6504C59.0625 35.3679 58.4675 35.9629 57.75 35.9629Z" fill="#438EF2"/>
<path d="M50.749 35.9634C50.4165 35.9634 50.084 35.8409 49.8215 35.5784C49.314 35.0709 49.314 34.2309 49.8215 33.7234L58.5715 24.9734C59.079 24.4659 59.919 24.4659 60.4265 24.9734C60.934 25.4809 60.934 26.3209 60.4265 26.8284L51.6765 35.5784C51.414 35.8409 51.0815 35.9634 50.749 35.9634Z" fill="#438EF2"/>
</svg>
