<svg width="84" height="84" viewBox="0 0 84 84" fill="none" xmlns="http://www.w3.org/2000/svg">
<circle cx="42" cy="42" r="42" fill="url(#paint0_linear_1426_626)"/>
<path d="M41.7937 30.3988L41.2541 29.8583L40.9242 29.528L41.2312 29.1763C41.4167 28.9637 41.604 28.7577 41.793 28.5582C38.3014 25.245 34.485 24.3772 31.3616 25.6861L41.7937 30.3988ZM41.7937 30.3988L41.6271 30.5655C38.2058 26.8684 34.5842 26.0589 31.8652 27.1995L31.865 27.1996C29.1546 28.338 27.0805 31.5232 26.9485 36.4265H25.5062C25.6405 31.0082 27.9605 27.1135 31.3614 25.6862L41.7937 30.3988ZM25.5117 37.4265C25.6678 40.7914 27.3731 44.1344 29.5334 47.0844C31.692 50.0317 34.3829 52.6959 36.7101 54.7513L37.6429 53.5197C35.3485 51.4979 32.7281 48.9009 30.6492 46.0609L25.5117 37.4265ZM25.5117 37.4265H26.9559M25.5117 37.4265H26.9559M26.9559 37.4265C27.1126 40.245 28.5696 43.2217 30.6491 46.0607L26.9559 37.4265ZM42.4991 29.2667C42.5677 29.3393 42.6361 29.413 42.7044 29.4876L42.5006 29.6915L42.2954 29.4859C42.3631 29.4119 42.431 29.3388 42.4991 29.2667ZM37.465 55.4107L38.399 54.1777C39.312 54.9657 39.9819 55.5183 40.5535 55.8792C41.0655 56.2024 41.5137 56.3818 42 56.4512V58.0745C40.3906 57.906 39.1968 56.9164 37.465 55.4107ZM43 58.0745V56.4511C43.4865 56.3816 43.9348 56.2017 44.4467 55.8782C45.0181 55.517 45.6879 54.9641 46.6008 54.1762L47.5349 55.4107C45.8032 56.9164 44.6094 57.906 43 58.0745ZM53.637 25.6862C57.0393 27.1118 59.3594 31.0063 59.4938 36.4231H58.0515C57.9195 31.5215 55.8455 28.3345 53.1348 27.1977C50.4157 26.0572 46.7942 26.8684 43.3731 30.5653L43.2072 30.3991L43.7457 29.8602L44.076 29.5298L43.7687 29.1779C43.5826 28.9647 43.3946 28.758 43.2049 28.558C46.6968 25.2422 50.5128 24.3754 53.6368 25.6861L53.637 25.6862ZM58.0441 37.4231H59.4883C59.3323 40.7895 57.627 44.1326 55.4666 47.0826C53.3081 50.0299 50.6172 52.694 48.2888 54.7494L47.357 53.5181C49.6514 51.4963 52.272 48.8992 54.3509 46.059L54.3509 46.059C56.4288 43.22 57.8874 40.2446 58.0441 37.4231ZM42.4067 31.2L42.5 31.1067L42.5933 31.2C42.5623 31.2045 42.5311 31.2068 42.5 31.2068C42.4689 31.2068 42.4377 31.2045 42.4067 31.2Z" fill="#DA001A" stroke="#DA001A"/>
<path d="M52 36.1001H49H52ZM49 36.1001H46H49ZM49 36.1001V33.6001V36.1001ZM49 36.1001V38.6001V36.1001Z" fill="#DA001A"/>
<path d="M52 36.1001H49M49 36.1001H46M49 36.1001V33.6001M49 36.1001V38.6001" stroke="#DA001A" stroke-width="1.5" stroke-linecap="round"/>
<defs>
<linearGradient id="paint0_linear_1426_626" x1="74.55" y1="2.14197e-06" x2="42" y2="84" gradientUnits="userSpaceOnUse">
<stop stop-color="#FFA3CF"/>
<stop offset="1" stop-color="#FFD5F3"/>
</linearGradient>
</defs>
</svg>
