<svg width="84" height="84" viewBox="0 0 84 84" fill="none" xmlns="http://www.w3.org/2000/svg">
<circle cx="42" cy="42" r="42" fill="#FABE24" fill-opacity="0.3"/>
<path d="M41.7937 31.3988L41.2541 30.8583L40.9242 30.528L41.2312 30.1763C41.4167 29.9637 41.604 29.7577 41.793 29.5582C38.3014 26.245 34.485 25.3772 31.3616 26.6861L41.7937 31.3988ZM41.7937 31.3988L41.6271 31.5655C38.2058 27.8684 34.5842 27.0589 31.8652 28.1995L31.865 28.1996C29.1546 29.338 27.0805 32.5232 26.9485 37.4265H25.5062C25.6405 32.0082 27.9605 28.1135 31.3614 26.6862L41.7937 31.3988ZM25.5117 38.4265C25.6678 41.7914 27.3731 45.1344 29.5334 48.0844C31.692 51.0317 34.3829 53.6959 36.7101 55.7513L37.6429 54.5197C35.3485 52.4979 32.7281 49.9009 30.6492 47.0609L25.5117 38.4265ZM25.5117 38.4265H26.9559M25.5117 38.4265H26.9559M26.9559 38.4265C27.1126 41.245 28.5696 44.2217 30.6491 47.0607L26.9559 38.4265ZM42.4991 30.2667C42.5677 30.3393 42.6361 30.413 42.7044 30.4876L42.5006 30.6915L42.2954 30.4859C42.3631 30.4119 42.431 30.3388 42.4991 30.2667ZM37.465 56.4107L38.399 55.1777C39.312 55.9657 39.9819 56.5183 40.5535 56.8792C41.0655 57.2024 41.5137 57.3818 42 57.4512V59.0745C40.3906 58.906 39.1968 57.9164 37.465 56.4107ZM43 59.0745V57.4511C43.4865 57.3816 43.9348 57.2017 44.4467 56.8782C45.0181 56.517 45.6879 55.9641 46.6008 55.1762L47.5349 56.4107C45.8032 57.9164 44.6094 58.906 43 59.0745ZM53.637 26.6862C57.0393 28.1118 59.3594 32.0063 59.4938 37.4231H58.0515C57.9195 32.5215 55.8455 29.3345 53.1348 28.1977C50.4157 27.0572 46.7942 27.8684 43.3731 31.5653L43.2072 31.3991L43.7457 30.8602L44.076 30.5298L43.7687 30.1779C43.5826 29.9647 43.3946 29.758 43.2049 29.558C46.6968 26.2422 50.5128 25.3754 53.6368 26.6861L53.637 26.6862ZM58.0441 38.4231H59.4883C59.3323 41.7895 57.627 45.1326 55.4666 48.0826C53.3081 51.0299 50.6172 53.694 48.2888 55.7494L47.357 54.5181C49.6514 52.4963 52.272 49.8992 54.3509 47.059L54.3509 47.059C56.4288 44.22 57.8874 41.2446 58.0441 38.4231ZM42.4067 32.2L42.5 32.1067L42.5933 32.2C42.5623 32.2045 42.5311 32.2068 42.5 32.2068C42.4689 32.2068 42.4377 32.2045 42.4067 32.2Z" fill="#FABE24" stroke="#FABE24"/>
<path d="M52 37.1001H49H52ZM49 37.1001H46H49ZM49 37.1001V34.6001V37.1001ZM49 37.1001V39.6001V37.1001Z" fill="#FABE24"/>
<path d="M52 37.1001H49M49 37.1001H46M49 37.1001V34.6001M49 37.1001V39.6001" stroke="#FABE24" stroke-width="1.5" stroke-linecap="round"/>
</svg>
